<svg width="364" height="321" viewBox="0 0 364 321" fill="none" xmlns="http://www.w3.org/2000/svg">
<path fill-rule="evenodd" clip-rule="evenodd" d="M396.619 145.144L386.493 118.138L266.919 162.969L360.992 76.609L341.488 55.3625L244.977 143.96L299.198 24.6959L272.942 12.7596L220.974 127.069L227.653 1.67859L198.852 0.144633L191.785 132.822L145.141 8.41332L118.135 18.5386L164.779 142.947L72.228 47.6191L51.5344 67.7097L139.002 157.802L24.6933 105.834L12.7578 132.09L132.021 186.31L1.05153 183.001L0.32386 211.833L127.985 215.059L8.41076 259.891L18.5361 286.897L138.11 242.065L44.0375 328.426L63.5406 349.672L160.053 261.075L105.833 380.338L132.087 392.274L184.055 277.965L177.377 403.356L206.177 404.889L213.244 272.213L259.888 396.621L286.894 386.496L240.25 262.086L332.801 357.415L353.495 337.325L266.026 247.232L380.336 299.199L392.273 272.945L273.009 218.725L403.977 222.033L404.706 193.202L277.044 189.976L396.619 145.144Z" fill="url(#paint0_linear_770_6686)"/>
<defs>
<linearGradient id="paint0_linear_770_6686" x1="391.556" y1="131.641" x2="-70.7797" y2="271.533" gradientUnits="userSpaceOnUse">
<stop stop-color="#00fffc"/>
<stop offset="0.5" stop-color="#fc00ff"/>
<stop offset="1" stop-color="#00fffc" stop-opacity="0.7"/>
</linearGradient>
</defs>
</svg>
